<svg xmlns="http://www.w3.org/2000/svg" aria-hidden="true" viewBox="0 0 17 17"><path d="M14.981 4.211a3.484 3.484 0 1 1-6.969 0 3.484 3.484 0 0 1 6.969 0" style="fill:var(--weather-icon-sun-color, #fdd93c)"/><path d="M3.886 5.035a3.5 3.5 0 0 0-1.437.864 3.45 3.45 0 0 0-1.02 2.455 3.47 3.47 0 0 0 3.483 3.468h6.969c1.925 0 3.484-1.598 3.484-3.523s-1.559-3.524-3.484-3.524h-1.083c-.253-1.691-1.699-2.908-3.447-2.908-1.8 0-3.28 1.415-3.465 3.168" style="fill:var(--weather-icon-cloud-back-color, #d4d4d4)"/><path d="M4.2 7.7a2.14 2.14 0 0 0-.888.533c-.39.39-.632.923-.632 1.517 0 1.19.964 2.144 2.154 2.144H9.14c1.19 0 2.153-.988 2.153-2.178s-.963-2.178-2.153-2.178h-.67c-.156-1.045-1.05-1.797-2.13-1.797-1.112 0-2.027.875-2.141 1.958" style="fill:var(--weather-icon-cloud-front-color, #f9f9f9)"/></svg>