<svg xmlns="http://www.w3.org/2000/svg" aria-hidden="true" viewBox="0 0 17 17"><style>.rain{fill:var(--weather-icon-rain-color, #30b3ff)}</style><path d="M3.886 5.035a3.5 3.5 0 0 0-1.437.864 3.45 3.45 0 0 0-1.02 2.455 3.47 3.47 0 0 0 3.483 3.468h6.969c1.925 0 3.484-1.598 3.484-3.523s-1.559-3.524-3.484-3.524h-1.083c-.253-1.691-1.699-2.908-3.447-2.908-1.8 0-3.28 1.415-3.465 3.168" style="fill:var(--weather-icon-cloud-back-color, #d4d4d4)"/><path d="M4.2 7.7a2.14 2.14 0 0 0-.888.533c-.39.39-.632.923-.632 1.517 0 1.19.964 2.144 2.154 2.144H9.14c1.19 0 2.153-.988 2.153-2.178s-.963-2.178-2.153-2.178h-.67c-.156-1.045-1.05-1.797-2.13-1.797-1.112 0-2.027.875-2.141 1.958" style="fill:var(--weather-icon-cloud-front-color, #f9f9f9)"/><path d="M5.285 14.734c-.224.248-.571.299-.775.114s-.187-.535.037-.783c.148-.163.591-.329.875-.424.125-.04.227.052.198.18-.065.292-.187.75-.335.913M11.257 14.163c-.224.248-.571.299-.775.114s-.188-.535.037-.783c.148-.163.59-.329.875-.424.125-.04.227.052.198.18-.065.292-.187.75-.335.913M8.432 15.878c-.155.17-.394.206-.534.079-.14-.128-.13-.369.025-.54.102-.112.407-.227.604-.292.085-.028.156.036.136.124-.045.201-.13.516-.231.629M8 14.118c-.193.212-.49.256-.666.097-.175-.158-.16-.458.032-.67.127-.14.507-.284.75-.364.107-.036.195.044.17.153-.055.251-.16.644-.287.784" class="rain"/></svg>