<svg xmlns="http://www.w3.org/2000/svg" aria-hidden="true" viewBox="0 0 17 17"><style>.cloud-back{fill:var(--weather-icon-cloud-back-color, #d4d4d4)}</style><path d="M3.886 5.035a3.5 3.5 0 0 0-1.437.864 3.45 3.45 0 0 0-1.02 2.455 3.47 3.47 0 0 0 3.483 3.468h6.969c1.925 0 3.484-1.598 3.484-3.523s-1.559-3.524-3.484-3.524h-1.083c-.253-1.691-1.699-2.908-3.447-2.908-1.8 0-3.28 1.415-3.465 3.168" class="cloud-back"/><path d="M4.2 7.7a2.14 2.14 0 0 0-.888.533c-.39.39-.632.923-.632 1.517 0 1.19.964 2.144 2.154 2.144H9.14c1.19 0 2.153-.988 2.153-2.178s-.963-2.178-2.153-2.178h-.67c-.156-1.045-1.05-1.797-2.13-1.797-1.112 0-2.027.875-2.141 1.958" style="fill:var(--weather-icon-cloud-front-color, #f9f9f9)"/><path d="m13.596 15.31-.25-.019c-.158-.012-.382-.029-.644-.057a10 10 0 0 1-.877-.125 7 7 0 0 1-.474-.111 4 4 0 0 1-.464-.161l-.268-.095a4 4 0 0 0-.305-.068 2.7 2.7 0 0 0-.564-.02c-.362.026-.685.12-.946.227-.262.108-.464.23-.6.324s-.205.16-.205.16l.248-.044c.156-.026.376-.062.636-.087.26-.027.56-.044.868-.023.077.003.154.016.232.022.078.011.154.03.232.04.072.019.14.04.213.057l.238.09c.092.032.183.07.276.098.092.026.185.053.277.072q.279.058.544.07a4 4 0 0 0 1.599-.246c.152-.058.234-.104.234-.104M4.752 13.906l.251-.01c.158-.006.382-.014.646-.032.263-.017.566-.043.88-.092a6 6 0 0 0 .479-.093q.239-.06.47-.144l.27-.085c.1-.022.207-.04.307-.055q.293-.03.565.001c.361.04.68.145.937.262s.455.247.587.347.2.168.2.168l-.247-.054a10 10 0 0 0-.633-.112 5 5 0 0 0-.866-.055c-.077 0-.154.01-.233.014-.078.008-.154.023-.233.031-.073.016-.14.035-.214.048l-.242.08c-.094.03-.186.065-.28.09-.093.022-.187.045-.28.06a3.4 3.4 0 0 1-.546.05 4 4 0 0 1-1.588-.306 2 2 0 0 1-.23-.113" class="cloud-back"/></svg>